<svg xmlns="http://www.w3.org/2000/svg" viewBox="0 0 512 512">
  <defs>
    <linearGradient id="g" x1="0" y1="0" x2="1" y2="1">
      <stop offset="0" stop-color="#FF6B35"/>
      <stop offset="1" stop-color="#E55A24"/>
    </linearGradient>
  </defs>
  <rect x="64" y="64" width="384" height="384" rx="96" fill="url(#g)"/>
  <path fill="#FFFFFF" d="M166 270c36-56 98-97 174-107l-8 22c-59 16-113 55-144 104l-22-19z"/>
  <path fill="#FFFFFF" d="M316 172l-78 78c-7 7-7 18 0 25l13 13c7 7 18 7 25 0l78-78-58-58z"/>
  <rect x="246" y="242" width="142" height="28" rx="14" fill="#1A1A2E"/>
  <path fill="#1A1A2E" d="M202 334l34-34 58 58-34 34c-8 8-21 8-29 0l-29-29c-8-8-8-21 0-29z"/>
</svg>

